<mxfile host="Electron" agent="Mozilla/5.0 (Windows NT 10.0; Win64; x64) AppleWebKit/537.36 (KHTML, like Gecko) draw.io/26.0.9 Chrome/128.0.6613.186 Electron/32.2.5 Safari/537.36" version="26.0.9">
  <diagram id="fS7CMY8sqDkm4dX73Nv4" name="PÃ¡gina-1">
    <mxGraphModel dx="1476" dy="1877" grid="1" gridSize="10" guides="1" tooltips="1" connect="1" arrows="1" fold="1" page="1" pageScale="1" pageWidth="827" pageHeight="1169" math="0" shadow="0">
      <root>
        <mxCell id="0" />
        <mxCell id="1" parent="0" />
        <mxCell id="g0PqF9fpZICf6S5GkRbG-11" style="edgeStyle=none;shape=connector;rounded=0;orthogonalLoop=1;jettySize=auto;html=1;exitX=1;exitY=0.5;exitDx=0;exitDy=0;entryX=0;entryY=0.5;entryDx=0;entryDy=0;strokeColor=default;align=center;verticalAlign=middle;fontFamily=Helvetica;fontSize=11;fontColor=default;labelBackgroundColor=default;endArrow=none;" edge="1" parent="1" source="g0PqF9fpZICf6S5GkRbG-1" target="g0PqF9fpZICf6S5GkRbG-4">
          <mxGeometry relative="1" as="geometry" />
        </mxCell>
        <mxCell id="g0PqF9fpZICf6S5GkRbG-1" value="User" style="whiteSpace=wrap;html=1;align=center;" vertex="1" parent="1">
          <mxGeometry x="60" y="390" width="100" height="40" as="geometry" />
        </mxCell>
        <mxCell id="g0PqF9fpZICf6S5GkRbG-12" style="edgeStyle=none;shape=connector;rounded=0;orthogonalLoop=1;jettySize=auto;html=1;exitX=1;exitY=0.5;exitDx=0;exitDy=0;entryX=0;entryY=0.5;entryDx=0;entryDy=0;strokeColor=default;align=center;verticalAlign=middle;fontFamily=Helvetica;fontSize=11;fontColor=default;labelBackgroundColor=default;endArrow=none;" edge="1" parent="1" source="g0PqF9fpZICf6S5GkRbG-2" target="g0PqF9fpZICf6S5GkRbG-3">
          <mxGeometry relative="1" as="geometry" />
        </mxCell>
        <mxCell id="g0PqF9fpZICf6S5GkRbG-2" value="Reserva" style="shape=rhombus;perimeter=rhombusPerimeter;whiteSpace=wrap;html=1;align=center;" vertex="1" parent="1">
          <mxGeometry x="250" y="330" width="120" height="60" as="geometry" />
        </mxCell>
        <mxCell id="g0PqF9fpZICf6S5GkRbG-3" value="Hotel" style="whiteSpace=wrap;html=1;align=center;" vertex="1" parent="1">
          <mxGeometry x="470" y="300" width="100" height="40" as="geometry" />
        </mxCell>
        <mxCell id="g0PqF9fpZICf6S5GkRbG-13" style="edgeStyle=none;shape=connector;rounded=0;orthogonalLoop=1;jettySize=auto;html=1;exitX=1;exitY=0.5;exitDx=0;exitDy=0;entryX=0;entryY=0.5;entryDx=0;entryDy=0;strokeColor=default;align=center;verticalAlign=middle;fontFamily=Helvetica;fontSize=11;fontColor=default;labelBackgroundColor=default;endArrow=none;" edge="1" parent="1" source="g0PqF9fpZICf6S5GkRbG-4" target="g0PqF9fpZICf6S5GkRbG-5">
          <mxGeometry relative="1" as="geometry" />
        </mxCell>
        <mxCell id="g0PqF9fpZICf6S5GkRbG-15" style="edgeStyle=none;shape=connector;rounded=0;orthogonalLoop=1;jettySize=auto;html=1;exitX=0.5;exitY=1;exitDx=0;exitDy=0;entryX=0.5;entryY=0;entryDx=0;entryDy=0;strokeColor=default;align=center;verticalAlign=middle;fontFamily=Helvetica;fontSize=11;fontColor=default;labelBackgroundColor=default;endArrow=none;" edge="1" parent="1" source="g0PqF9fpZICf6S5GkRbG-4" target="g0PqF9fpZICf6S5GkRbG-7">
          <mxGeometry relative="1" as="geometry" />
        </mxCell>
        <mxCell id="g0PqF9fpZICf6S5GkRbG-4" value="Reserva" style="shape=rhombus;perimeter=rhombusPerimeter;whiteSpace=wrap;html=1;align=center;" vertex="1" parent="1">
          <mxGeometry x="250" y="440" width="120" height="60" as="geometry" />
        </mxCell>
        <mxCell id="g0PqF9fpZICf6S5GkRbG-5" value="Flight" style="whiteSpace=wrap;html=1;align=center;" vertex="1" parent="1">
          <mxGeometry x="470" y="545" width="100" height="40" as="geometry" />
        </mxCell>
        <mxCell id="g0PqF9fpZICf6S5GkRbG-6" value="HotelBooking&lt;div&gt;TABLA RENACIDA&lt;/div&gt;" style="whiteSpace=wrap;html=1;align=center;strokeColor=light-dark(#f90101, #ededed);" vertex="1" parent="1">
          <mxGeometry x="250" y="230" width="120" height="40" as="geometry" />
        </mxCell>
        <mxCell id="g0PqF9fpZICf6S5GkRbG-7" value="FlightBooking&lt;div&gt;TABLA RENACIDA&lt;/div&gt;" style="whiteSpace=wrap;html=1;align=center;strokeColor=light-dark(#f90101, #ededed);" vertex="1" parent="1">
          <mxGeometry x="250" y="520" width="120" height="40" as="geometry" />
        </mxCell>
        <mxCell id="g0PqF9fpZICf6S5GkRbG-14" style="edgeStyle=none;shape=connector;rounded=0;orthogonalLoop=1;jettySize=auto;html=1;entryX=0.5;entryY=1;entryDx=0;entryDy=0;strokeColor=default;align=center;verticalAlign=middle;fontFamily=Helvetica;fontSize=11;fontColor=default;labelBackgroundColor=default;endArrow=none;" edge="1" parent="1" source="g0PqF9fpZICf6S5GkRbG-2" target="g0PqF9fpZICf6S5GkRbG-6">
          <mxGeometry relative="1" as="geometry">
            <mxPoint x="350" y="360" as="sourcePoint" />
          </mxGeometry>
        </mxCell>
        <mxCell id="g0PqF9fpZICf6S5GkRbG-9" value="&lt;b&gt;N:M&lt;/b&gt;" style="text;html=1;align=center;verticalAlign=middle;whiteSpace=wrap;rounded=0;" vertex="1" parent="1">
          <mxGeometry x="280" y="410" width="60" height="30" as="geometry" />
        </mxCell>
        <mxCell id="g0PqF9fpZICf6S5GkRbG-10" value="" style="endArrow=none;html=1;rounded=0;exitX=1;exitY=0.25;exitDx=0;exitDy=0;entryX=0;entryY=0.5;entryDx=0;entryDy=0;" edge="1" parent="1" source="g0PqF9fpZICf6S5GkRbG-1" target="g0PqF9fpZICf6S5GkRbG-2">
          <mxGeometry width="50" height="50" relative="1" as="geometry">
            <mxPoint x="310" y="390" as="sourcePoint" />
            <mxPoint x="360" y="340" as="targetPoint" />
          </mxGeometry>
        </mxCell>
        <mxCell id="g0PqF9fpZICf6S5GkRbG-16" value="&lt;b&gt;N:M&lt;/b&gt;" style="text;html=1;align=center;verticalAlign=middle;whiteSpace=wrap;rounded=0;" vertex="1" parent="1">
          <mxGeometry x="260" y="310" width="60" height="30" as="geometry" />
        </mxCell>
        <mxCell id="g0PqF9fpZICf6S5GkRbG-17" value="id" style="ellipse;whiteSpace=wrap;html=1;align=center;fontStyle=4;fontFamily=Helvetica;fontSize=11;fontColor=default;labelBackgroundColor=default;" vertex="1" parent="1">
          <mxGeometry x="470" y="600" width="100" height="40" as="geometry" />
        </mxCell>
        <mxCell id="g0PqF9fpZICf6S5GkRbG-18" value="id" style="ellipse;whiteSpace=wrap;html=1;align=center;fontStyle=4;fontFamily=Helvetica;fontSize=11;fontColor=default;labelBackgroundColor=default;" vertex="1" parent="1">
          <mxGeometry x="256.25" y="-140" width="100" height="40" as="geometry" />
        </mxCell>
        <mxCell id="g0PqF9fpZICf6S5GkRbG-19" value="id" style="ellipse;whiteSpace=wrap;html=1;align=center;fontStyle=4;fontFamily=Helvetica;fontSize=11;fontColor=default;labelBackgroundColor=default;" vertex="1" parent="1">
          <mxGeometry x="260" y="570" width="100" height="40" as="geometry" />
        </mxCell>
        <mxCell id="g0PqF9fpZICf6S5GkRbG-20" value="id" style="ellipse;whiteSpace=wrap;html=1;align=center;fontStyle=4;fontFamily=Helvetica;fontSize=11;fontColor=default;labelBackgroundColor=default;" vertex="1" parent="1">
          <mxGeometry x="622.5" y="240" width="100" height="40" as="geometry" />
        </mxCell>
        <mxCell id="g0PqF9fpZICf6S5GkRbG-21" value="id" style="ellipse;whiteSpace=wrap;html=1;align=center;fontStyle=4;fontFamily=Helvetica;fontSize=11;fontColor=default;labelBackgroundColor=default;" vertex="1" parent="1">
          <mxGeometry x="-90" y="270" width="100" height="40" as="geometry" />
        </mxCell>
        <mxCell id="g0PqF9fpZICf6S5GkRbG-22" value="username" style="ellipse;whiteSpace=wrap;html=1;align=center;fontFamily=Helvetica;fontSize=11;fontColor=default;labelBackgroundColor=default;" vertex="1" parent="1">
          <mxGeometry x="-90" y="320" width="100" height="40" as="geometry" />
        </mxCell>
        <mxCell id="g0PqF9fpZICf6S5GkRbG-23" value="password" style="ellipse;whiteSpace=wrap;html=1;align=center;fontFamily=Helvetica;fontSize=11;fontColor=default;labelBackgroundColor=default;" vertex="1" parent="1">
          <mxGeometry x="-90" y="370" width="100" height="40" as="geometry" />
        </mxCell>
        <mxCell id="g0PqF9fpZICf6S5GkRbG-24" value="rol" style="ellipse;whiteSpace=wrap;html=1;align=center;fontFamily=Helvetica;fontSize=11;fontColor=default;labelBackgroundColor=default;" vertex="1" parent="1">
          <mxGeometry x="-90" y="420" width="100" height="40" as="geometry" />
        </mxCell>
        <mxCell id="g0PqF9fpZICf6S5GkRbG-25" value="@OneToMany&lt;div&gt;List&amp;lt;ReservaHotel&amp;gt;&lt;/div&gt;" style="ellipse;whiteSpace=wrap;html=1;align=center;fontFamily=Helvetica;fontSize=11;fontColor=default;labelBackgroundColor=default;strokeColor=light-dark(#f90101, #ededed);" vertex="1" parent="1">
          <mxGeometry x="-110" y="620" width="145" height="40" as="geometry" />
        </mxCell>
        <mxCell id="g0PqF9fpZICf6S5GkRbG-26" value="@OneToMany&lt;div&gt;List&amp;lt;ReservaVuelo&amp;gt;&lt;/div&gt;" style="ellipse;whiteSpace=wrap;html=1;align=center;fontFamily=Helvetica;fontSize=11;fontColor=default;labelBackgroundColor=default;strokeColor=light-dark(#fa0000, #ededed);" vertex="1" parent="1">
          <mxGeometry x="-112.5" y="670" width="145" height="40" as="geometry" />
        </mxCell>
        <mxCell id="g0PqF9fpZICf6S5GkRbG-27" value="@OneToMany&lt;div&gt;List&amp;lt;ReservaHotel&amp;gt;&lt;/div&gt;" style="ellipse;whiteSpace=wrap;html=1;align=center;fontFamily=Helvetica;fontSize=11;fontColor=default;labelBackgroundColor=default;strokeColor=light-dark(#f90101, #ededed);" vertex="1" parent="1">
          <mxGeometry x="740" y="490" width="145" height="40" as="geometry" />
        </mxCell>
        <mxCell id="g0PqF9fpZICf6S5GkRbG-28" value="@OneToMany&lt;div&gt;List&amp;lt;ReservaVuelo&amp;gt;&lt;/div&gt;" style="ellipse;whiteSpace=wrap;html=1;align=center;fontFamily=Helvetica;fontSize=11;fontColor=default;labelBackgroundColor=default;strokeColor=light-dark(#fa0000, #ededed);" vertex="1" parent="1">
          <mxGeometry x="447.5" y="1020" width="145" height="40" as="geometry" />
        </mxCell>
        <mxCell id="g0PqF9fpZICf6S5GkRbG-30" value="@ManyToOne&lt;div&gt;User&lt;/div&gt;" style="ellipse;whiteSpace=wrap;html=1;align=center;fontFamily=Helvetica;fontSize=11;fontColor=default;labelBackgroundColor=default;strokeColor=light-dark(#fa0000, #ededed);" vertex="1" parent="1">
          <mxGeometry x="253.75" y="120" width="112.5" height="40" as="geometry" />
        </mxCell>
        <mxCell id="g0PqF9fpZICf6S5GkRbG-31" value="@ManyToOne&lt;div&gt;Hotel&lt;/div&gt;" style="ellipse;whiteSpace=wrap;html=1;align=center;fontFamily=Helvetica;fontSize=11;fontColor=default;labelBackgroundColor=default;strokeColor=light-dark(#fa0000, #ededed);" vertex="1" parent="1">
          <mxGeometry x="250" y="170" width="112.5" height="40" as="geometry" />
        </mxCell>
        <mxCell id="g0PqF9fpZICf6S5GkRbG-32" value="@ManyToOne&lt;div&gt;User&lt;/div&gt;" style="ellipse;whiteSpace=wrap;html=1;align=center;fontFamily=Helvetica;fontSize=11;fontColor=default;labelBackgroundColor=default;strokeColor=light-dark(#fa0000, #ededed);" vertex="1" parent="1">
          <mxGeometry x="253.75" y="620" width="112.5" height="40" as="geometry" />
        </mxCell>
        <mxCell id="g0PqF9fpZICf6S5GkRbG-33" value="@ManyToOne&lt;div&gt;Flight&lt;/div&gt;" style="ellipse;whiteSpace=wrap;html=1;align=center;fontFamily=Helvetica;fontSize=11;fontColor=default;labelBackgroundColor=default;strokeColor=light-dark(#fa0000, #ededed);" vertex="1" parent="1">
          <mxGeometry x="260" y="670" width="112.5" height="40" as="geometry" />
        </mxCell>
        <mxCell id="g0PqF9fpZICf6S5GkRbG-34" value="dateFrom" style="ellipse;whiteSpace=wrap;html=1;align=center;fontFamily=Helvetica;fontSize=11;fontColor=default;labelBackgroundColor=default;" vertex="1" parent="1">
          <mxGeometry x="256.25" y="-40" width="100" height="40" as="geometry" />
        </mxCell>
        <mxCell id="g0PqF9fpZICf6S5GkRbG-35" value="dateTo" style="ellipse;whiteSpace=wrap;html=1;align=center;fontFamily=Helvetica;fontSize=11;fontColor=default;labelBackgroundColor=default;" vertex="1" parent="1">
          <mxGeometry x="253.75" y="-90" width="100" height="40" as="geometry" />
        </mxCell>
        <mxCell id="g0PqF9fpZICf6S5GkRbG-36" value="nights" style="ellipse;whiteSpace=wrap;html=1;align=center;fontFamily=Helvetica;fontSize=11;fontColor=default;labelBackgroundColor=default;" vertex="1" parent="1">
          <mxGeometry x="256.25" y="10" width="100" height="40" as="geometry" />
        </mxCell>
        <mxCell id="g0PqF9fpZICf6S5GkRbG-37" value="place" style="ellipse;whiteSpace=wrap;html=1;align=center;fontFamily=Helvetica;fontSize=11;fontColor=default;labelBackgroundColor=default;" vertex="1" parent="1">
          <mxGeometry x="370" y="-140" width="100" height="40" as="geometry" />
        </mxCell>
        <mxCell id="g0PqF9fpZICf6S5GkRbG-38" value="hotelCode" style="ellipse;whiteSpace=wrap;html=1;align=center;fontFamily=Helvetica;fontSize=11;fontColor=default;labelBackgroundColor=default;" vertex="1" parent="1">
          <mxGeometry x="370" y="-90" width="100" height="40" as="geometry" />
        </mxCell>
        <mxCell id="g0PqF9fpZICf6S5GkRbG-39" value="peopleQ" style="ellipse;whiteSpace=wrap;html=1;align=center;fontFamily=Helvetica;fontSize=11;fontColor=default;labelBackgroundColor=default;" vertex="1" parent="1">
          <mxGeometry x="370" y="-40" width="100" height="40" as="geometry" />
        </mxCell>
        <mxCell id="g0PqF9fpZICf6S5GkRbG-40" value="roomType" style="ellipse;whiteSpace=wrap;html=1;align=center;fontFamily=Helvetica;fontSize=11;fontColor=default;labelBackgroundColor=default;" vertex="1" parent="1">
          <mxGeometry x="622.5" y="440" width="100" height="40" as="geometry" />
        </mxCell>
        <mxCell id="g0PqF9fpZICf6S5GkRbG-43" value="hotelCode" style="ellipse;whiteSpace=wrap;html=1;align=center;fontFamily=Helvetica;fontSize=11;fontColor=default;labelBackgroundColor=default;" vertex="1" parent="1">
          <mxGeometry x="622.5" y="290" width="100" height="40" as="geometry" />
        </mxCell>
        <mxCell id="g0PqF9fpZICf6S5GkRbG-44" value="name" style="ellipse;whiteSpace=wrap;html=1;align=center;fontFamily=Helvetica;fontSize=11;fontColor=default;labelBackgroundColor=default;" vertex="1" parent="1">
          <mxGeometry x="622.5" y="340" width="100" height="40" as="geometry" />
        </mxCell>
        <mxCell id="g0PqF9fpZICf6S5GkRbG-45" value="city" style="ellipse;whiteSpace=wrap;html=1;align=center;fontFamily=Helvetica;fontSize=11;fontColor=default;labelBackgroundColor=default;" vertex="1" parent="1">
          <mxGeometry x="622.5" y="390" width="100" height="40" as="geometry" />
        </mxCell>
        <mxCell id="g0PqF9fpZICf6S5GkRbG-46" value="ratePerNight" style="ellipse;whiteSpace=wrap;html=1;align=center;fontFamily=Helvetica;fontSize=11;fontColor=default;labelBackgroundColor=default;" vertex="1" parent="1">
          <mxGeometry x="622.5" y="490" width="100" height="40" as="geometry" />
        </mxCell>
        <mxCell id="g0PqF9fpZICf6S5GkRbG-47" value="roomType" style="ellipse;whiteSpace=wrap;html=1;align=center;fontFamily=Helvetica;fontSize=11;fontColor=default;labelBackgroundColor=default;" vertex="1" parent="1">
          <mxGeometry x="372.5" y="10" width="100" height="40" as="geometry" />
        </mxCell>
        <mxCell id="g0PqF9fpZICf6S5GkRbG-48" value="ListHost" style="ellipse;whiteSpace=wrap;html=1;align=center;fontFamily=Helvetica;fontSize=11;fontColor=default;labelBackgroundColor=default;" vertex="1" parent="1">
          <mxGeometry x="480" y="-140" width="100" height="40" as="geometry" />
        </mxCell>
        <mxCell id="g0PqF9fpZICf6S5GkRbG-49" value="dateTo" style="ellipse;whiteSpace=wrap;html=1;align=center;fontFamily=Helvetica;fontSize=11;fontColor=default;labelBackgroundColor=default;" vertex="1" parent="1">
          <mxGeometry x="740" y="240" width="100" height="40" as="geometry" />
        </mxCell>
        <mxCell id="g0PqF9fpZICf6S5GkRbG-50" value="dateFrom" style="ellipse;whiteSpace=wrap;html=1;align=center;fontFamily=Helvetica;fontSize=11;fontColor=default;labelBackgroundColor=default;" vertex="1" parent="1">
          <mxGeometry x="740" y="290" width="100" height="40" as="geometry" />
        </mxCell>
        <mxCell id="g0PqF9fpZICf6S5GkRbG-51" value="booked" style="ellipse;whiteSpace=wrap;html=1;align=center;fontFamily=Helvetica;fontSize=11;fontColor=default;labelBackgroundColor=default;" vertex="1" parent="1">
          <mxGeometry x="740" y="340" width="100" height="40" as="geometry" />
        </mxCell>
        <mxCell id="g0PqF9fpZICf6S5GkRbG-52" value="active" style="ellipse;whiteSpace=wrap;html=1;align=center;fontFamily=Helvetica;fontSize=11;fontColor=default;labelBackgroundColor=default;strokeColor=light-dark(#09f137, #ededed);" vertex="1" parent="1">
          <mxGeometry x="740" y="390" width="100" height="40" as="geometry" />
        </mxCell>
        <mxCell id="g0PqF9fpZICf6S5GkRbG-53" value="active" style="ellipse;whiteSpace=wrap;html=1;align=center;fontFamily=Helvetica;fontSize=11;fontColor=default;labelBackgroundColor=default;strokeColor=light-dark(#09f137, #ededed);" vertex="1" parent="1">
          <mxGeometry x="470" y="1070" width="100" height="40" as="geometry" />
        </mxCell>
        <mxCell id="g0PqF9fpZICf6S5GkRbG-54" value="active" style="ellipse;whiteSpace=wrap;html=1;align=center;fontFamily=Helvetica;fontSize=11;fontColor=default;labelBackgroundColor=default;strokeColor=light-dark(#09f137, #ededed);" vertex="1" parent="1">
          <mxGeometry x="-90" y="720" width="100" height="40" as="geometry" />
        </mxCell>
        <mxCell id="g0PqF9fpZICf6S5GkRbG-55" value="active" style="ellipse;whiteSpace=wrap;html=1;align=center;fontFamily=Helvetica;fontSize=11;fontColor=default;labelBackgroundColor=default;strokeColor=light-dark(#09f137, #ededed);" vertex="1" parent="1">
          <mxGeometry x="262.5" y="720" width="100" height="40" as="geometry" />
        </mxCell>
        <mxCell id="g0PqF9fpZICf6S5GkRbG-56" value="active" style="ellipse;whiteSpace=wrap;html=1;align=center;fontFamily=Helvetica;fontSize=11;fontColor=default;labelBackgroundColor=default;strokeColor=light-dark(#09f137, #ededed);" vertex="1" parent="1">
          <mxGeometry x="372.5" y="140" width="100" height="40" as="geometry" />
        </mxCell>
        <mxCell id="g0PqF9fpZICf6S5GkRbG-57" value="flightNumber" style="ellipse;whiteSpace=wrap;html=1;align=center;fontFamily=Helvetica;fontSize=11;fontColor=default;labelBackgroundColor=default;" vertex="1" parent="1">
          <mxGeometry x="470" y="650" width="100" height="40" as="geometry" />
        </mxCell>
        <mxCell id="g0PqF9fpZICf6S5GkRbG-58" value="origin" style="ellipse;whiteSpace=wrap;html=1;align=center;fontFamily=Helvetica;fontSize=11;fontColor=default;labelBackgroundColor=default;" vertex="1" parent="1">
          <mxGeometry x="470" y="700" width="100" height="40" as="geometry" />
        </mxCell>
        <mxCell id="g0PqF9fpZICf6S5GkRbG-59" value="destiny" style="ellipse;whiteSpace=wrap;html=1;align=center;fontFamily=Helvetica;fontSize=11;fontColor=default;labelBackgroundColor=default;" vertex="1" parent="1">
          <mxGeometry x="470" y="750" width="100" height="40" as="geometry" />
        </mxCell>
        <mxCell id="g0PqF9fpZICf6S5GkRbG-60" value="seatType" style="ellipse;whiteSpace=wrap;html=1;align=center;fontFamily=Helvetica;fontSize=11;fontColor=default;labelBackgroundColor=default;" vertex="1" parent="1">
          <mxGeometry x="472.5" y="800" width="100" height="40" as="geometry" />
        </mxCell>
        <mxCell id="g0PqF9fpZICf6S5GkRbG-61" value="ratePerPerson" style="ellipse;whiteSpace=wrap;html=1;align=center;fontFamily=Helvetica;fontSize=11;fontColor=default;labelBackgroundColor=default;" vertex="1" parent="1">
          <mxGeometry x="470" y="850" width="100" height="40" as="geometry" />
        </mxCell>
        <mxCell id="g0PqF9fpZICf6S5GkRbG-62" value="departureDate" style="ellipse;whiteSpace=wrap;html=1;align=center;fontFamily=Helvetica;fontSize=11;fontColor=default;labelBackgroundColor=default;" vertex="1" parent="1">
          <mxGeometry x="470" y="900" width="100" height="40" as="geometry" />
        </mxCell>
        <mxCell id="g0PqF9fpZICf6S5GkRbG-63" value="returnDate" style="ellipse;whiteSpace=wrap;html=1;align=center;fontFamily=Helvetica;fontSize=11;fontColor=default;labelBackgroundColor=default;" vertex="1" parent="1">
          <mxGeometry x="470" y="950" width="100" height="40" as="geometry" />
        </mxCell>
        <mxCell id="g0PqF9fpZICf6S5GkRbG-64" value="name" style="ellipse;whiteSpace=wrap;html=1;align=center;fontFamily=Helvetica;fontSize=11;fontColor=default;labelBackgroundColor=default;" vertex="1" parent="1">
          <mxGeometry x="-90" y="470" width="100" height="40" as="geometry" />
        </mxCell>
        <mxCell id="g0PqF9fpZICf6S5GkRbG-65" value="surname" style="ellipse;whiteSpace=wrap;html=1;align=center;fontFamily=Helvetica;fontSize=11;fontColor=default;labelBackgroundColor=default;" vertex="1" parent="1">
          <mxGeometry x="-90" y="520" width="100" height="40" as="geometry" />
        </mxCell>
        <mxCell id="g0PqF9fpZICf6S5GkRbG-66" value="dni" style="ellipse;whiteSpace=wrap;html=1;align=center;fontFamily=Helvetica;fontSize=11;fontColor=default;labelBackgroundColor=default;" vertex="1" parent="1">
          <mxGeometry x="-90" y="570" width="100" height="40" as="geometry" />
        </mxCell>
      </root>
    </mxGraphModel>
  </diagram>
</mxfile>
